<svg xmlns="http://www.w3.org/2000/svg" width="512" height="512" viewBox="0 0 512 512"><defs><linearGradient id="bgGradient" x1="0%" x2="100%" y1="0%" y2="100%"><stop offset="0%" style="stop-color:#667eea;stop-opacity:1"/><stop offset="100%" style="stop-color:#764ba2;stop-opacity:1"/></linearGradient><linearGradient id="starGradient" x1="0%" x2="100%" y1="0%" y2="100%"><stop offset="0%" style="stop-color:gold;stop-opacity:1"/><stop offset="100%" style="stop-color:#ffb347;stop-opacity:1"/></linearGradient><linearGradient id="githubGradient" x1="0%" x2="100%" y1="0%" y2="100%"><stop offset="0%" style="stop-color:#fff;stop-opacity:1"/><stop offset="100%" style="stop-color:#f0f0f0;stop-opacity:1"/></linearGradient><filter id="shadow" width="200%" height="200%" x="-50%" y="-50%"><feDropShadow dx="2" dy="4" flood-color="#000" flood-opacity=".3" stdDeviation="3"/></filter></defs><circle cx="256" cy="256" r="240" fill="url(#bgGradient)" stroke="#4a5568" stroke-width="4"/><circle cx="256" cy="200" r="80" fill="url(#githubGradient)" filter="url(#shadow)"/><g transform="translate(256, 200)"><ellipse cx="0" cy="10" fill="#24292e" rx="35" ry="45"/><circle cx="0" cy="-20" r="30" fill="#24292e"/><polygon fill="#24292e" points="-20 -35 -10 -50 -5 -35"/><polygon fill="#24292e" points="20 -35 10 -50 5 -35"/><circle cx="-10" cy="-25" r="4" fill="#fff"/><circle cx="10" cy="-25" r="4" fill="#fff"/><circle cx="-10" cy="-25" r="2" fill="#24292e"/><circle cx="10" cy="-25" r="2" fill="#24292e"/><polygon fill="#fff" points="0 -15 -3 -10 3 -10"/><line x1="-25" x2="-35" y1="-20" y2="-18" stroke="#fff" stroke-width="2"/><line x1="-25" x2="-35" y1="-15" y2="-15" stroke="#fff" stroke-width="2"/><line x1="25" x2="35" y1="-20" y2="-18" stroke="#fff" stroke-width="2"/><line x1="25" x2="35" y1="-15" y2="-15" stroke="#fff" stroke-width="2"/></g><g fill="url(#starGradient)" filter="url(#shadow)"><g transform="translate(180, 140)"><polygon points="0 -20 6 -6 20 -6 10 2 16 16 0 8 -16 16 -10 2 -20 -6 -6 -6"/></g><g transform="translate(330, 160) scale(0.7)"><polygon points="0 -20 6 -6 20 -6 10 2 16 16 0 8 -16 16 -10 2 -20 -6 -6 -6"/></g><g transform="translate(200, 280) scale(0.5)"><polygon points="0 -20 6 -6 20 -6 10 2 16 16 0 8 -16 16 -10 2 -20 -6 -6 -6"/></g><g transform="translate(320, 280) scale(0.6)"><polygon points="0 -20 6 -6 20 -6 10 2 16 16 0 8 -16 16 -10 2 -20 -6 -6 -6"/></g></g><g fill="#fff" filter="url(#shadow)" transform="translate(256, 350)"><rect width="60" height="40" x="-30" y="-10" fill="#4299e1" opacity=".9" rx="4"/><rect width="20" height="8" x="-25" y="-15" fill="#4299e1" opacity=".9" rx="2"/><rect width="15" height="2" x="-20" y="-2" fill="#fff" opacity=".8"/><rect width="25" height="2" x="-20" y="5" fill="#fff" opacity=".8"/><rect width="20" height="2" x="-20" y="12" fill="#fff" opacity=".8"/></g><g fill="#10b981" filter="url(#shadow)" transform="translate(380, 320)"><circle cx="0" cy="0" r="15" fill="#10b981"/><path fill="#fff" d="M-8,-5 Q-8,-10 -3,-10 Q2,-10 2,-5 Q7,-5 7,0 Q7,5 2,5 Q-3,5 -3,0 Q-8,0 -8,-5"/><circle cx="-3" cy="-3" r="1.5" fill="#10b981"/><circle cx="2" cy="-3" r="1.5" fill="#10b981"/><circle cx="-1" cy="2" r="1" fill="#10b981"/></g><text x="256" y="450" fill="#fff" filter="url(#shadow)" font-family="Arial, sans-serif" font-size="24" font-weight="bold" text-anchor="middle">GitHub Stars</text><text x="256" y="475" fill="#e2e8f0" font-family="Arial, sans-serif" font-size="18" text-anchor="middle">Manager</text></svg>